<svg width="51" height="56" fill="none" xmlns="http://www.w3.org/2000/svg"><g clip-path="url(#a)" fill="#071F41"><path d="m50.209 31.2-.89-14.534c-.058-.942-.44-1.8-1.076-2.42-.636-.618-1.45-.92-2.29-.852-1.652.135-2.933 1.693-2.916 3.548l.105 11.848-4.583 6.574c-.731 1.05-1.945 1.47-3.046 1.154l4.986-7.252c.875-1.272.73-3.116-.331-4.198-.566-.577-1.299-.862-2.063-.802-.764.06-1.454.456-1.943 1.116l-7.533 10.16c-1.242 1.675-1.916 3.797-1.897 5.975l.117 13.492c.005.538.395.971.875.972l12.543.02c.246 0 .48-.116.646-.319.166-.202.249-.474.228-.748l-.512-6.604 8.326-12.394c.912-1.358 1.358-3.04 1.254-4.736Zm-2.655 3.556L39.027 47.45c-.13.194-.192.434-.173.675l.458 5.911-10.719-.016-.108-12.522c-.015-1.714.515-3.384 1.493-4.703l7.532-10.16a.984.984 0 0 1 .717-.411.95.95 0 0 1 .762.296c.391.399.445 1.08.122 1.549l-5.659 8.23a1.07 1.07 0 0 0-.17.759c.04.269.178.507.38.657 2.025 1.504 4.783 1.002 6.279-1.143l4.77-6.844a1.06 1.06 0 0 0 .186-.614l-.108-12.192c-.007-.82.56-1.51 1.291-1.57a1.29 1.29 0 0 1 1.014.377c.282.274.451.654.477 1.071l.89 14.534c.075 1.226-.247 2.44-.907 3.422ZM14.624 25.381c-.49-.66-1.18-1.056-1.943-1.116-.764-.06-1.497.226-2.063.803-1.061 1.081-1.206 2.925-.331 4.198l4.986 7.252c-1.1.316-2.315-.105-3.046-1.154L7.643 28.79l.105-11.848c.016-1.855-1.265-3.414-2.916-3.548-.84-.068-1.654.234-2.29.852-.636.619-1.019 1.478-1.076 2.42L.577 31.2c-.104 1.696.341 3.378 1.254 4.736l8.326 12.393-.512 6.605c-.021.274.061.546.228.748.166.203.4.318.645.318h.001l12.542-.02c.48 0 .87-.433.875-.971l.117-13.492c.02-2.178-.654-4.3-1.897-5.976l-7.532-10.16Zm7.568 28.638-10.718.017.458-5.911a1.067 1.067 0 0 0-.173-.675L3.231 34.756c-.66-.981-.98-2.197-.906-3.422l.89-14.534c.026-.417.195-.797.477-1.071a1.3 1.3 0 0 1 1.013-.378c.732.06 1.299.75 1.291 1.571l-.108 12.192c-.002.222.064.438.186.614l4.771 6.844c1.496 2.145 4.253 2.647 6.278 1.143a.998.998 0 0 0 .38-.657 1.072 1.072 0 0 0-.17-.76l-5.658-8.23c-.323-.469-.27-1.15.122-1.548a.952.952 0 0 1 .762-.297.985.985 0 0 1 .717.412l7.532 10.16c.978 1.319 1.508 2.989 1.493 4.703l-.109 12.521ZM42.558 11.043c0-2.95-1.026-5.723-2.888-7.809C37.808 1.15 35.332 0 32.698 0c-2.634 0-5.11 1.149-6.972 3.234l-.333.374-.333-.374C23.197 1.15 20.72 0 18.088 0c-2.634 0-5.11 1.149-6.972 3.234-3.844 4.306-3.844 11.312 0 15.617l13.657 15.297a.83.83 0 0 0 .62.287.829.829 0 0 0 .62-.287L39.67 18.85c1.862-2.085 2.888-4.858 2.888-7.808ZM25.393 32.066 12.355 17.463c-3.16-3.54-3.16-9.3 0-12.84 1.531-1.716 3.567-2.66 5.733-2.66 2.165 0 4.201.944 5.732 2.66l.953 1.066a.831.831 0 0 0 .62.288.832.832 0 0 0 .62-.288l.952-1.067c1.532-1.715 3.568-2.66 5.733-2.66 2.166 0 4.202.945 5.733 2.66 1.531 1.715 2.374 3.995 2.374 6.42 0 2.426-.843 4.707-2.374 6.422L25.393 32.066Z"/></g><defs><clipPath id="a"><path fill="#fff" transform="translate(.393)" d="M0 0h50v56H0z"/></clipPath></defs></svg>