<svg xmlns="http://www.w3.org/2000/svg" width="20" height="20" viewBox="0 0 512 512" version="1.1"><path d="" stroke="none" fill="#080404" fill-rule="evenodd"/><path d="M 247.008 246.497 L 107.500 385.994 107.500 392.074 C 107.500 397.818, 107.706 398.343, 111.235 401.577 C 114.498 404.567, 115.636 405, 120.231 405 L 125.492 405 265.246 265.246 L 405 125.492 405 120.128 C 405 115.231, 404.662 114.427, 401.118 110.882 C 397.574 107.338, 396.768 107, 391.875 107 L 386.515 107 247.008 246.497 M 228 125.428 C 214.178 127.188, 202.816 129.491, 190.129 133.104 C 127.344 150.985, 75.243 191.704, 42.090 248.804 L 37.849 256.107 44.134 266.727 C 58.916 291.702, 84.106 320.129, 106.587 337.205 L 116.674 344.867 125.587 335.850 L 134.500 326.833 132.015 325.167 C 110.786 310.927, 88.974 289.112, 73.467 266.610 L 66.652 256.720 68.882 252.516 C 72.483 245.728, 86.061 228.235, 95.523 218.195 C 124.152 187.815, 161.856 165.742, 202.822 155.379 C 210.150 153.526, 221.310 151.332, 227.624 150.505 C 249.060 147.695, 282.032 148.998, 300.909 153.402 L 306.767 154.768 316.916 144.585 L 327.065 134.401 316.782 131.738 C 297.012 126.619, 283.157 124.841, 260 124.452 C 245.859 124.214, 234.906 124.548, 228 125.428 M 386.031 176.469 C 381.397 181.127, 377.807 185.122, 378.053 185.345 C 378.299 185.569, 383.225 189.277, 389 193.586 C 407.932 207.712, 434.956 237.131, 443.096 252.475 L 445.305 256.639 439.973 264.569 C 414.681 302.191, 378.405 331.524, 336.873 347.937 C 297.604 363.456, 257.194 367.207, 214.210 359.322 L 204.921 357.618 195.460 367.039 C 190.257 372.221, 186 376.775, 186 377.159 C 186 379.053, 214.215 385.145, 231.793 387.047 C 248.101 388.811, 280.046 387.798, 295.872 385.015 C 368.382 372.264, 430.817 329.325, 467.866 266.727 L 474.151 256.107 469.919 248.804 C 455.370 223.694, 435.125 199.468, 413.934 181.807 C 405.590 174.853, 396.326 168, 395.271 168 C 394.822 168, 390.664 171.811, 386.031 176.469 M 246.500 182.647 C 212.112 188.180, 187.498 213.275, 182.952 247.437 C 181.895 255.378, 182.829 268.661, 184.824 274.053 C 185.416 275.654, 193.101 268.406, 230.923 230.577 L 276.312 185.180 272.406 184.066 C 268.053 182.825, 251.150 181.899, 246.500 182.647 M 281.078 281.422 L 235.710 326.798 241.105 327.832 C 256.473 330.778, 268.115 329.878, 281.940 324.675 C 313.477 312.807, 333.245 280.739, 329.212 247.988 C 328.605 243.052, 327.734 238.347, 327.277 237.530 C 326.644 236.400, 315.630 246.864, 281.078 281.422" stroke="none" fill="#040404" fill-rule="evenodd"/></svg>