<svg width="377" height="120" fill="none" xmlns="http://www.w3.org/2000/svg"><path d="m30.132 68.006-7.172 7.869V95H5.479V22.484H22.96V54.46l6.076-9.214 15.639-22.76H66.29L41.786 54.558 66.29 95H45.571l-15.44-26.994ZM100.307 95c-.598-1.096-1.13-2.706-1.594-4.831-3.088 3.885-7.404 5.827-12.95 5.827-5.08 0-9.396-1.527-12.949-4.582-3.552-3.088-5.329-6.956-5.329-11.604 0-5.844 2.159-10.26 6.475-13.249 4.316-2.988 10.592-4.482 18.826-4.482h5.18V59.24c0-4.947-2.142-7.42-6.425-7.42-3.984 0-5.977 1.958-5.977 5.876H68.78c0-5.213 2.208-9.446 6.624-12.7 4.45-3.254 10.11-4.88 16.984-4.88 6.873 0 12.301 1.676 16.286 5.03 3.984 3.353 6.026 7.952 6.126 13.795v23.857c.066 4.947.83 8.732 2.291 11.355V95h-16.784Zm-10.51-10.957c2.093 0 3.82-.448 5.18-1.345 1.395-.896 2.391-1.909 2.989-3.038v-8.616h-4.881c-5.844 0-8.766 2.623-8.766 7.87 0 1.526.515 2.772 1.544 3.734 1.03.93 2.341 1.395 3.935 1.395Zm84.37-15.589c0 8.367-1.893 15.058-5.678 20.071-3.752 4.98-8.832 7.471-15.24 7.471-4.947 0-9.015-1.81-12.202-5.429v25.152h-16.784V41.111h15.688l.498 4.98c3.221-3.984 7.454-5.976 12.7-5.976 6.641 0 11.804 2.457 15.49 7.371 3.685 4.881 5.528 11.605 5.528 20.171v.797Zm-16.784-1.046c0-9.562-2.789-14.343-8.367-14.343-3.985 0-6.641 1.427-7.969 4.283v21.216c1.461 2.989 4.15 4.483 8.068 4.483 5.346 0 8.102-4.615 8.268-13.846v-1.793Zm56.329 21.765c-3.553 4.549-8.351 6.823-14.394 6.823-5.91 0-10.392-1.71-13.447-5.13-3.021-3.453-4.532-8.4-4.532-14.842V41.111h16.784v35.013c0 4.615 2.241 6.923 6.724 6.923 3.851 0 6.591-1.378 8.217-4.134V41.111h16.884V95H214.21l-.498-5.827Zm53.689-9.314c0-1.427-.747-2.573-2.241-3.436-1.494-.863-4.333-1.76-8.516-2.69-4.184-.93-7.637-2.141-10.36-3.635-2.722-1.528-4.798-3.37-6.225-5.529-1.428-2.158-2.142-4.632-2.142-7.42 0-4.948 2.042-9.015 6.126-12.203 4.084-3.22 9.43-4.83 16.037-4.83 7.106 0 12.816 1.61 17.133 4.83 4.316 3.221 6.475 7.454 6.475 12.7h-16.834c0-4.316-2.275-6.474-6.824-6.474-1.759 0-3.237.498-4.432 1.494-1.196.963-1.793 2.175-1.793 3.636 0 1.494.73 2.706 2.191 3.636 1.461.93 3.785 1.693 6.973 2.29 3.22.598 6.043 1.312 8.467 2.142 8.101 2.79 12.152 7.786 12.152 14.991 0 4.914-2.192 8.915-6.574 12.003-4.35 3.088-9.994 4.632-16.934 4.632-4.615 0-8.732-.83-12.351-2.49-3.62-1.66-6.442-3.918-8.467-6.774-2.026-2.855-3.038-5.86-3.038-9.014h15.688c.067 2.49.897 4.316 2.49 5.478 1.594 1.13 3.636 1.694 6.126 1.694 2.291 0 4.001-.465 5.13-1.395 1.162-.93 1.743-2.142 1.743-3.636Zm43.629-52.145V41.11h8.866v11.655h-8.866v24.653c0 2.025.366 3.437 1.096 4.233.73.797 2.175 1.196 4.333 1.196 1.66 0 3.055-.1 4.184-.3v12.004c-3.022.963-6.176 1.444-9.463 1.444-5.778 0-10.044-1.361-12.8-4.084-2.756-2.723-4.134-6.856-4.134-12.401V52.766h-6.873V41.11h6.873V27.714h16.784ZM356.9 95c-.597-1.096-1.129-2.706-1.593-4.831-3.088 3.885-7.405 5.827-12.95 5.827-5.08 0-9.396-1.527-12.949-4.582-3.553-3.088-5.329-6.956-5.329-11.604 0-5.844 2.158-10.26 6.475-13.249 4.316-2.988 10.592-4.482 18.826-4.482h5.18V59.24c0-4.947-2.142-7.42-6.425-7.42-3.985 0-5.977 1.958-5.977 5.876h-16.784c0-5.213 2.208-9.446 6.624-12.7 4.449-3.254 10.11-4.88 16.983-4.88 6.873 0 12.302 1.676 16.287 5.03 3.984 3.353 6.026 7.952 6.126 13.795v23.857c.066 4.947.83 8.732 2.291 11.355V95H356.9Zm-10.508-10.957c2.091 0 3.818-.448 5.179-1.345 1.395-.896 2.391-1.909 2.989-3.038v-8.616h-4.881c-5.844 0-8.766 2.623-8.766 7.87 0 1.526.515 2.772 1.544 3.734 1.029.93 2.341 1.395 3.935 1.395Z" fill="#000"/><path fill="#000" d="M257 28h8v13h-8zM257 95h8v13h-8z"/></svg>