<svg width="307" height="78" fill="none" xmlns="http://www.w3.org/2000/svg"><path fill-rule="evenodd" clip-rule="evenodd" d="m14.553 44.492 5.97-6.558L33.376 60.43h17.248l-20.399-33.7L50.624 0H32.63L19.61 18.967l-5.058 7.678V0H0v60.43h14.553V44.491Zm63.062 11.912c.387 1.77.83 3.112 1.327 4.025h13.972v-.705c-1.216-2.186-1.852-5.34-1.907-9.463V30.38c-.083-4.87-1.783-8.702-5.1-11.497-3.317-2.794-7.836-4.192-13.557-4.192-5.722 0-10.435 1.356-14.139 4.068-3.676 2.711-5.514 6.239-5.514 10.583h13.972c0-3.265 1.659-4.897 4.976-4.897 3.565 0 5.348 2.061 5.348 6.184v2.365h-4.312c-6.855 0-12.079 1.245-15.672 3.736-3.593 2.49-5.39 6.17-5.39 11.04 0 3.873 1.479 7.097 4.436 9.67 2.958 2.546 6.551 3.818 10.78 3.818 4.616 0 8.21-1.618 10.78-4.855Zm-3.11-6.226c-1.133.747-2.57 1.12-4.311 1.12-1.327 0-2.419-.387-3.276-1.162-.857-.802-1.285-1.84-1.285-3.112 0-4.372 2.432-6.558 7.297-6.558h4.063v7.18c-.497.94-1.327 1.785-2.487 2.532Zm65.924-11.87c0 6.973-1.576 12.548-4.727 16.726-3.123 4.15-7.352 6.225-12.687 6.225-4.119 0-7.505-1.508-10.158-4.523v20.959H98.885V15.522h13.06l.414 4.15c2.682-3.32 6.206-4.98 10.573-4.98 5.528 0 9.826 2.048 12.894 6.143 3.068 4.067 4.603 9.67 4.603 16.809v.664Zm-13.973-.872c0-7.968-2.322-11.953-6.965-11.953-3.317 0-5.528 1.19-6.634 3.57v17.68c1.216 2.49 3.455 3.735 6.717 3.735 4.45 0 6.744-3.846 6.882-11.538v-1.494Zm34.91 23.823c5.031 0 9.025-1.895 11.983-5.686l.414 4.856h13.102V15.522H172.81v31.502c-1.355 2.296-3.635 3.444-6.841 3.444-3.732 0-5.598-1.923-5.598-5.769V15.522h-13.972v29.094c0 5.368 1.258 9.49 3.773 12.368 2.543 2.85 6.274 4.275 11.194 4.275Zm56.678-13.447c0-1.19-.622-2.144-1.866-2.864-1.244-.719-3.607-1.466-7.09-2.24-3.483-.776-6.357-1.785-8.624-3.03-2.266-1.273-3.994-2.809-5.182-4.607-1.189-1.799-1.783-3.86-1.783-6.184 0-4.123 1.7-7.513 5.099-10.169 2.855-2.254 6.451-3.561 10.787-3.922v-10.2h6.66V14.93c4.055.492 7.444 1.756 10.166 3.79 3.594 2.683 5.39 6.21 5.39 10.583h-14.013c0-3.597-1.894-5.396-5.681-5.396-1.465 0-2.695.415-3.69 1.245-.995.803-1.492 1.813-1.492 3.03 0 1.245.608 2.255 1.824 3.03 1.216.774 3.151 1.41 5.805 1.909 2.681.498 5.03 1.093 7.048 1.785 6.744 2.324 10.116 6.488 10.116 12.492 0 4.095-1.824 7.43-5.472 10.003-2.724 1.935-6.058 3.143-10.001 3.622v10.24h-6.66v-10.11c-2.82-.244-5.393-.9-7.718-1.968-3.013-1.383-5.363-3.265-7.049-5.644-1.686-2.38-2.529-4.884-2.529-7.512h13.06c.056 2.075.747 3.596 2.073 4.565 1.327.94 3.027 1.411 5.1 1.411 1.907 0 3.331-.387 4.27-1.162.968-.775 1.452-1.785 1.452-3.03Zm36.319-32.29V4.358h-13.972v11.164h-5.722v9.712h5.722v22.288c0 4.62 1.147 8.065 3.441 10.334 2.295 2.269 5.846 3.403 10.656 3.403 2.736 0 5.362-.4 7.877-1.203V50.053c-.939.166-2.1.25-3.482.25-1.797 0-2.999-.333-3.607-.997-.608-.664-.913-1.84-.913-3.527V25.233h7.381v-9.712h-7.381Zm38.186 44.907c-.497-.913-.94-2.255-1.327-4.026-2.57 3.238-6.164 4.856-10.78 4.856-4.229 0-7.822-1.272-10.779-3.818-2.958-2.573-4.437-5.797-4.437-9.67 0-4.87 1.797-8.55 5.39-11.04 3.594-2.49 8.818-3.736 15.672-3.736h4.312V30.63c0-4.123-1.782-6.184-5.348-6.184-3.317 0-4.975 1.632-4.975 4.897h-13.973c0-4.344 1.838-7.872 5.515-10.583 3.703-2.712 8.416-4.068 14.138-4.068 5.721 0 10.241 1.398 13.558 4.192 3.316 2.795 5.016 6.627 5.099 11.497v19.88c.056 4.123.691 7.277 1.907 9.463v.705h-13.972Zm-8.748-9.13c1.741 0 3.179-.374 4.312-1.121 1.161-.747 1.99-1.591 2.487-2.532v-7.18h-4.063c-4.865 0-7.297 2.186-7.297 6.558 0 1.272.429 2.31 1.285 3.112.857.775 1.949 1.162 3.276 1.162Z" fill="#000"/></svg>