<svg xmlns="http://www.w3.org/2000/svg" width="20" height="20" viewBox="0 0 300 300" version="1.1"><path d="M 130.834 69.567 C 94.997 76.051, 53.640 103.075, 22.638 140.263 C 14.043 150.574, 14.831 152.648, 35.388 173.826 C 109.900 250.588, 190.100 250.588, 264.612 173.826 C 285.169 152.648, 285.957 150.574, 277.362 140.263 C 233.820 88.032, 177.898 61.050, 130.834 69.567 M 134 82.139 C 105.413 86.843, 73.984 105.653, 44.250 135.853 C 29.357 150.979, 29.357 149.105, 44.250 164.187 C 116.218 237.064, 183.971 237.052, 255.750 164.147 C 270.839 148.821, 268.716 143.806, 235.908 117.270 C 200.500 88.632, 166.264 76.830, 134 82.139 M 135.985 107.873 C 119.747 113.071, 107.891 126.861, 105.018 143.893 L 103.888 150.592 105.364 157.672 C 115.474 206.160, 184.526 206.160, 194.636 157.672 L 196.112 150.592 194.982 143.893 C 190.371 116.558, 162.333 99.439, 135.985 107.873 M 138.500 120.584 C 131.247 123.171, 124.816 128.956, 121.103 136.235 L 117.706 142.894 117.706 150 L 117.706 157.106 121.103 163.765 C 132.984 187.056, 167.016 187.056, 178.897 163.765 L 182.294 157.106 182.294 150 L 182.294 142.894 178.897 136.235 C 171.658 122.044, 153.804 115.127, 138.500 120.584" stroke="none" fill="#000101" fill-rule="evenodd"/></svg>