<svg width="49" height="56" fill="none" xmlns="http://www.w3.org/2000/svg"><path d="M11.798 4.725c-.398 0-.722.372-.722.83v.352c0 .459.324.831.722.831.4 0 .723-.372.723-.83v-.352c0-.46-.324-.831-.723-.831ZM9.699 7.492h-.306c-.398 0-.722.372-.722.83 0 .46.324.832.722.832H9.7c.399 0 .722-.372.722-.831 0-.46-.323-.831-.722-.831ZM10.824 6.027l-.216-.249a.657.657 0 0 0-1.021 0 .922.922 0 0 0 0 1.176l.216.248a.675.675 0 0 0 .51.243c.185 0 .37-.08.511-.243a.922.922 0 0 0 0-1.175ZM10.824 9.444a.657.657 0 0 0-1.02 0l-.217.248a.922.922 0 0 0 0 1.175.675.675 0 0 0 .51.244c.185 0 .37-.082.511-.244l.216-.248a.922.922 0 0 0 0-1.175Z" fill="#071F41"/><path d="M43.311 6.853H18.917c-.276-1.777-1.047-3.405-2.213-4.645C15.364.784 13.623 0 11.798 0 7.81 0 4.565 3.734 4.565 8.323c0 4.59 3.245 8.323 7.233 8.323.733 0 1.452-.128 2.147-.377 1.088 1.181 2.436 2.065 3.958 2.52.984.295 1.731 1.229 1.904 2.38l.918 6.118c.324 2.161 1.37 4.035 2.943 5.276 1.193.94 1.905 2.475 1.905 4.104v12.469c-.55.401-.903 1.107-.903 1.886l.001.07c-1.804.425-3.29.816-4.418 1.163-.769.236-1.348.444-1.773.636-.395.18-1.13.513-1.13 1.288 0 1.04 1.175 1.218 2.12 1.361.812.123 1.937.225 3.343.304 2.375.134 4.782.156 4.806.156h.011c.024 0 2.43-.023 4.806-.156 1.406-.079 2.53-.181 3.342-.304.945-.143 2.121-.32 2.121-1.361 0-.823-.66-1.248-3.069-1.975-1.46-.44-3.279-.886-4.585-1.19a2.396 2.396 0 0 0-.57-1.572V36.666c0-1.628.713-3.162 1.906-4.103 1.573-1.241 2.619-3.115 2.943-5.276l.918-6.118c.172-1.151.92-2.085 1.903-2.38 3.299-.987 5.78-3.98 6.564-7.666l.009-.042c.165-.793.254-1.617.254-2.46v-.776c0-.547-.386-.992-.86-.992Zm-31.513 8.13c-3.192 0-5.788-2.987-5.788-6.66s2.596-6.661 5.788-6.661c1.46 0 2.854.627 3.926 1.766.87.925 1.464 2.118 1.72 3.425h-.74c-.572-2.533-2.578-4.365-4.906-4.365-2.796 0-5.07 2.618-5.07 5.835s2.275 5.835 5.07 5.835a4.4 4.4 0 0 0 .625-.046c.139.26.287.512.444.758a5.05 5.05 0 0 1-1.069.114ZM14.01 5.78a.657.657 0 0 0-1.021 0l-.216.248a.92.92 0 0 0-.182.826h-.653c-.475 0-.862.445-.862.992v.776c0 .843.09 1.666.255 2.46a11.638 11.638 0 0 0 .388 1.413c-1.963-.05-3.547-1.901-3.547-4.171 0-2.301 1.627-4.173 3.626-4.173 1.535 0 2.874 1.112 3.394 2.703h-1.11a.926.926 0 0 0-.072-1.074Zm15.842 46.84c2.54.588 4.133 1.033 5.13 1.355-1.824.206-4.75.341-7.358.364-2.606-.023-5.532-.158-7.357-.364.954-.308 2.453-.729 4.803-1.28.65-.151 1.1-.852 1.046-1.627a.67.67 0 0 1-.002-.045c0-.258.152-.484.368-.551.316-.097.536-.426.536-.803V36.666c0-1.093-.24-2.154-.679-3.098.404.03.844.046 1.285.046.441 0 .882-.016 1.286-.046a7.357 7.357 0 0 0-.679 3.099v13.17c0 .284.127.55.337.702a.593.593 0 0 1 .232.52c-.042.74.41 1.411 1.052 1.56ZM42.728 8.62c0 .5-.036.99-.106 1.47H20.883c-.398 0-.722.373-.722.832 0 .459.323.83.722.83H42.23c-.864 2.624-2.785 4.691-5.248 5.428-1.531.458-2.694 1.913-2.963 3.706l-.918 6.117c-.257 1.716-1.087 3.203-2.336 4.188-.194.153-.77.51-.874.564-.572.259-3.957.259-4.532 0-.105-.053-.68-.41-.875-.564-1.249-.985-2.079-2.472-2.336-4.188l-.918-6.117c-.269-1.793-1.432-3.247-2.963-3.706-1.394-.417-2.614-1.26-3.567-2.389a9.146 9.146 0 0 1-1.68-3.039h4.504c.398 0 .722-.371.722-.83 0-.46-.324-.831-.722-.831h-4.897c-.07-.48-.107-.972-.107-1.471v-.106H42.73v.106Z" fill="#071F41"/></svg>