<svg width="48" height="56" fill="none" xmlns="http://www.w3.org/2000/svg"><path d="M13.423 34.716a.826.826 0 0 0-.82-.832H4.648a.826.826 0 0 0-.82.832v5.38c0 .46.367.833.82.833h7.955c.453 0 .82-.372.82-.832v-5.38Zm-1.64 4.548H5.468v-3.716h6.315v3.716ZM32.933 39.135h4.419c.453 0 .82-.372.82-.832a.826.826 0 0 0-.82-.832h-4.42a.826.826 0 0 0-.82.832c0 .46.367.832.82.832ZM32.933 35.548h4.419c.453 0 .82-.372.82-.832a.826.826 0 0 0-.82-.832h-4.42a.826.826 0 0 0-.82.832c0 .46.367.832.82.832Z" fill="#071F41"/><path d="M40.888 43.693a.826.826 0 0 0-.82.832v10.706c0 .159-.128.288-.285.288H2.217a.287.287 0 0 1-.284-.288V36.81a.826.826 0 0 0-.82-.831.826.826 0 0 0-.821.832V55.23c0 1.077.864 1.953 1.925 1.953h37.566c1.061 0 1.925-.876 1.925-1.953V44.525a.826.826 0 0 0-.82-.832ZM39.783 28.615H26.24v-4.222c4.238-2.009 7.181-6.374 7.181-11.425C33.421 6.018 27.85.365 21 .365c-2.377 0-4.688.684-6.682 1.977a12.576 12.576 0 0 0-4.5 5.131.838.838 0 0 0 .38 1.113c.408.2.899.028 1.096-.386 1.82-3.806 5.54-6.17 9.706-6.17 5.945 0 10.78 4.907 10.78 10.938C31.78 19 26.946 23.906 21 23.906c-5.945 0-10.78-4.906-10.78-10.938 0-.425.023-.853.071-1.273a.83.83 0 0 0-.72-.922.822.822 0 0 0-.91.73c-.054.484-.082.976-.082 1.465 0 5.05 2.943 9.416 7.181 11.425v4.222H2.217c-1.061 0-1.925.876-1.925 1.953v2.34c0 .46.367.833.82.833.453 0 .82-.373.82-.833v-2.34c0-.159.128-.289.285-.289h10.677l7.489 8.684a.816.816 0 0 0 1.234 0l7.49-8.684h10.676c.157 0 .284.13.284.29v10.05c0 .46.367.832.82.832.454 0 .82-.373.82-.832v-10.05c0-1.078-.863-1.954-1.924-1.954ZM21 37.15l-5.926-6.872h1.506c.454 0 .82-.372.82-.832V25.03c1.14.35 2.349.54 3.6.54s2.46-.19 3.599-.54v4.416c0 .46.367.832.82.832h1.507L21 37.151Z" fill="#071F41"/><path d="M4.648 49.112h2.21c.453 0 .82-.373.82-.832a.826.826 0 0 0-.82-.833h-2.21a.826.826 0 0 0-.82.833c0 .46.367.832.82.832ZM12.603 47.447h-2.21a.826.826 0 0 0-.82.833c0 .46.367.832.82.832h2.21c.453 0 .82-.373.82-.832a.826.826 0 0 0-.82-.833ZM18.348 49.112c.453 0 .82-.373.82-.832a.826.826 0 0 0-.82-.833h-2.21a.826.826 0 0 0-.82.833c0 .46.367.832.82.832h2.21ZM24.093 49.112c.454 0 .82-.373.82-.832a.826.826 0 0 0-.82-.833h-2.21a.826.826 0 0 0-.82.833c0 .46.368.832.82.832h2.21ZM4.648 53.596h8.839c.453 0 .82-.372.82-.832a.826.826 0 0 0-.82-.832h-8.84a.826.826 0 0 0-.82.832c0 .46.368.832.82.832ZM27.693 50.522c0 1.695 1.36 3.074 3.03 3.074.87 0 1.656-.375 2.21-.974a3.001 3.001 0 0 0 2.21.974c1.67 0 3.03-1.38 3.03-3.074 0-1.696-1.36-3.075-3.03-3.075-.872 0-1.657.375-2.21.974a3.002 3.002 0 0 0-2.21-.974c-1.67 0-3.03 1.38-3.03 3.075Zm7.45-1.41c.765 0 1.389.632 1.389 1.41 0 .777-.623 1.41-1.39 1.41-.766 0-1.39-.633-1.39-1.41 0-.778.624-1.41 1.39-1.41Zm-3.03 1.41c0 .777-.624 1.41-1.39 1.41-.766 0-1.39-.633-1.39-1.41 0-.778.624-1.41 1.39-1.41.766 0 1.39.632 1.39 1.41ZM18.282 17.324a.813.813 0 0 0-1.135.24.84.84 0 0 0 .237 1.153c1.061.704 1.785.913 2.721.965v.917c0 .46.368.833.82.833.454 0 .821-.373.821-.833v-.983c1.86-.367 2.946-1.921 3.186-3.373.309-1.863-.652-3.484-2.448-4.128-.243-.087-.49-.178-.738-.273V7.85c.626.15.999.47 1.031.5a.812.812 0 0 0 1.154-.053.84.84 0 0 0-.047-1.176c-.047-.044-.84-.769-2.138-.964v-.82a.826.826 0 0 0-.82-.832.826.826 0 0 0-.82.832v.883c-.125.028-.252.06-.382.1-1.182.361-2.066 1.388-2.305 2.68-.22 1.177.152 2.312.969 2.962.434.345.976.662 1.717.997v5.056c-.646-.047-1.09-.205-1.823-.691Zm1.119-6.672c-.333-.265-.475-.78-.37-1.344.094-.508.426-1.12 1.075-1.362v3.162a4.997 4.997 0 0 1-.705-.456Zm2.536 3.033c1.537.551 1.443 1.886 1.377 2.283-.128.775-.662 1.597-1.568 1.92v-4.273l.191.07Z" fill="#071F41"/></svg>