<svg width="56" height="56" fill="none" xmlns="http://www.w3.org/2000/svg"><g clip-path="url(#a)" fill="#071F41"><path d="M26.973 23.357c-.19-.068-.385-.14-.58-.212v-3.582a4.766 4.766 0 0 1 1.114.636c.465.388 1.152.32 1.536-.15a1.12 1.12 0 0 0-.145-1.563 6.798 6.798 0 0 0-2.505-1.245v-.543c0-.613-.49-1.11-1.094-1.11-.604 0-1.093.497-1.093 1.11v.492a4.401 4.401 0 0 0-.35.09c-1.257.384-2.165 1.46-2.428 2.876-.255 1.377.187 2.75 1.127 3.498.428.34.951.654 1.65.979v4.693c-.494-.07-.866-.24-1.458-.633a1.084 1.084 0 0 0-1.514.32c-.33.514-.189 1.201.317 1.537 1.039.69 1.771.932 2.656 1.009v.69c0 .613.49 1.11 1.094 1.11.604 0 1.093-.497 1.093-1.11v-.796c1.82-.468 2.985-2.045 3.243-3.6.331-1.998-.739-3.805-2.663-4.496Zm-2.767-1.235a3.863 3.863 0 0 1-.302-.215c-.295-.235-.429-.786-.326-1.34.034-.186.174-.737.628-1.03v2.585Zm3.273 5.364c-.1.603-.469 1.237-1.086 1.595v-3.572c1.187.506 1.158 1.543 1.086 1.977Z"/><path d="m51.79 24.075-6.946-4.654V1.475c0-.613-.49-1.11-1.094-1.11H17.5c-.604 0-1.094.497-1.094 1.11v4.217H12.25c-.604 0-1.094.497-1.094 1.11V19.42L4.21 24.075a1.114 1.114 0 0 0-.491.926v31.073c0 .613.49 1.11 1.094 1.11h18.265c.604 0 1.094-.497 1.094-1.11 0-.613-.49-1.11-1.094-1.11H7.453L23.4 38.784l3.998 2.68a1.082 1.082 0 0 0 1.206 0l3.998-2.68 15.946 16.18H32.922c-.604 0-1.094.497-1.094 1.11 0 .613.49 1.11 1.094 1.11h18.266c.603 0 1.093-.497 1.093-1.11V25c0-.373-.184-.72-.49-.926Zm-2.587.926-4.36 2.92v-5.84l4.36 2.92ZM18.593 2.585h24.063v26.803l-3.062 2.052V6.802c0-.613-.49-1.11-1.094-1.11H18.594V2.585ZM11.157 22.08v5.84l-4.359-2.92 4.36-2.92Zm-5.25 31.314V27.064l15.63 10.472-15.63 15.859ZM28 39.208l-14.656-9.82V7.91h24.062v24.994L28 39.208Zm22.094-12.144v26.33l-15.63-15.858 15.63-10.472Z"/><path d="M28 54.964c-.288 0-.57.119-.773.325-.204.206-.32.493-.32.785 0 .291.116.578.32.784.203.207.485.325.773.325.288 0 .57-.118.773-.325.204-.206.32-.492.32-.784 0-.292-.116-.579-.32-.785a1.094 1.094 0 0 0-.773-.325Z"/></g><defs><clipPath id="a"><path fill="#fff" transform="translate(0 .365)" d="M0 0h56v56.818H0z"/></clipPath></defs></svg>