<svg width="58" height="58" fill="none" xmlns="http://www.w3.org/2000/svg"><g clip-path="url(#a)" filter="url(#b)" fill="#071F41"><path d="m51.66 22.436-1.074-1.293-3.774-11.546c-.643-1.95-2.288-3.243-4.122-3.255H15.736c-1.834 0-3.479 1.304-4.122 3.255L7.894 21l-1.55 1.627c-1.35 1.305-2.13 3.22-2.13 5.23V44.68c.01 2.752 1.982 4.978 4.407 4.978h2.782c2.425 0 4.396-2.226 4.407-4.978v-2.44h26.142v2.44c.01 2.752 1.982 4.978 4.407 4.978h2.782c2.425 0 4.396-2.226 4.407-4.978V27.414c-.01-1.879-.686-3.674-1.887-4.978ZM13.597 10.41c.337-1.017 1.191-1.675 2.14-1.675H42.7c.948 0 1.802.67 2.14 1.675l3.288 10.052h-2.456c-.58-4.488-4.258-7.587-8.211-6.917-3.152.527-5.63 3.339-6.093 6.917H10.307l3.29-10.052Zm29.927 10.052H33.498c.58-3.148 3.3-5.158 6.072-4.5 1.982.479 3.531 2.238 3.953 4.5ZM13.7 44.68c-.01 1.436-1.033 2.585-2.298 2.585H8.621c-1.265 0-2.288-1.149-2.298-2.585v-3.135c.632.467 1.465.694 2.298.694h5.08v2.441Zm37.738 0c-.01 1.436-1.033 2.585-2.298 2.585H46.36c-1.266 0-2.288-1.16-2.299-2.585v-2.44h5.081c.833 0 1.666-.228 2.298-.695v3.135Zm-2.298-4.834H8.621c-1.255.012-2.288-1.125-2.298-2.56v-9.43c0-1.316.516-2.572 1.402-3.422l.042-.048L9.2 22.855h39.92l1.012 1.232c.01.024.042.036.053.06.79.85 1.244 2.034 1.244 3.267v9.871h.01c-.01 1.424-1.043 2.573-2.298 2.561Z"/><path d="M18.129 27.641h-7.906c-.58 0-1.054.539-1.054 1.197v6.222c0 .658.474 1.197 1.054 1.197h7.906c.58 0 1.054-.539 1.054-1.197v-6.222c0-.658-.474-1.197-1.054-1.197Zm-1.054 6.222h-5.798v-3.829h5.798v3.83ZM47.54 27.641h-7.907c-.58 0-1.054.539-1.054 1.197v6.222c0 .658.474 1.197 1.054 1.197h7.906c.58 0 1.054-.539 1.054-1.197v-6.222c0-.658-.474-1.197-1.054-1.197Zm-1.055 6.222h-5.798v-3.829h5.798v3.83ZM33.972 32.666H23.79c-.58 0-1.054.539-1.054 1.197s.475 1.197 1.055 1.197h10.182c.58 0 1.055-.539 1.055-1.197s-.475-1.197-1.055-1.197ZM33.972 28.957H23.79c-.58 0-1.054.538-1.054 1.197 0 .658.475 1.196 1.055 1.196h10.182c.58 0 1.055-.538 1.055-1.196 0-.659-.475-1.197-1.055-1.197Z"/></g><defs><clipPath id="a"><path fill="#fff" transform="translate(4.214)" d="M0 0h49.333v56H0z"/></clipPath><filter id="b" x=".214" y="0" width="57.333" height="64" filterUnits="userSpaceOnUse" color-interpolation-filters="sRGB"><feFlood flood-opacity="0" result="BackgroundImageFix"/><feColorMatrix in="SourceAlpha" values="0 0 0 0 0 0 0 0 0 0 0 0 0 0 0 0 0 0 127 0" result="hardAlpha"/><feOffset dy="4"/><feGaussianBlur stdDeviation="2"/><feComposite in2="hardAlpha" operator="out"/><feColorMatrix values="0 0 0 0 0 0 0 0 0 0 0 0 0 0 0 0 0 0 0.25 0"/><feBlend in2="BackgroundImageFix" result="effect1_dropShadow_11_1293"/><feBlend in="SourceGraphic" in2="effect1_dropShadow_11_1293" result="shape"/></filter></defs></svg>