<svg width="57" height="57" fill="none" xmlns="http://www.w3.org/2000/svg"><path d="m56.938 44.58-.215-1.297c-.137-.829-.783-1.43-1.536-1.43-.095 0-.19.01-.284.029l-4.368.899 1.978-1.482c.518-.388.78-1.082.667-1.77a1.888 1.888 0 0 0-.175-.54l-.599-1.187a1.608 1.608 0 0 0-.959-.831 1.409 1.409 0 0 0-.606-.043c.22-1.361.334-2.752.334-4.168 0-.628-.337-1.168-.819-1.408a7.866 7.866 0 0 0 .05-5.355 1.132 1.132 0 0 0-.222-.38.996.996 0 0 0-.337-.248 5.684 5.684 0 0 0-2.635-.493c-.114-2.576-2.017-4.632-4.34-4.632-.307 0-.605.037-.893.104a8.457 8.457 0 0 0-.384-4.061 1.16 1.16 0 0 0-.228-.391 1.006 1.006 0 0 0-.342-.253 6.123 6.123 0 0 0-2.509-.54 6.21 6.21 0 0 0-3.612 1.17 9.351 9.351 0 0 0-1.94-3.477 1.319 1.319 0 0 0-.99-.46 1.32 1.32 0 0 0-.99.46l-3.99 4.478c-.738-.737-1.71-1.178-2.764-1.178-.24 0-.48.023-.718.07-.86.167-1.65.638-2.257 1.328a3.787 3.787 0 0 0-2.524-.396 3.819 3.819 0 0 0-.548.15v-3.45c0-2.377-1.706-4.313-3.815-4.354V7.487c.646-.126 1.139-.756 1.139-1.514V1.538C15.507.69 14.89 0 14.133 0h-6.7C6.676 0 6.06.69 6.06 1.538v4.435c0 .758.493 1.388 1.138 1.514v1.956c-2.11.041-3.815 1.978-3.815 4.355v26.934a9.297 9.297 0 0 0-2.669 6.553c0 5.05 3.958 9.16 8.823 9.16l32.98-.011c1.125 0 2.184-.555 2.904-1.52.701-.94 1-2.16.827-3.364l6.588 1.325a1.445 1.445 0 0 0 1.187-.299c.342-.273.574-.698.636-1.163l.178-1.341a1.944 1.944 0 0 0-.008-.575c-.114-.686-.58-1.23-1.188-1.386l-2.322-.596 4.364-.898a1.55 1.55 0 0 0 1.006-.729c.236-.384.325-.849.249-1.308Zm-9.42-17.867c.496 0 .984.088 1.453.261a5.784 5.784 0 0 1-.394 4.244h-2.22l.708-.795c.322-.36.321-.945-.001-1.305a.763.763 0 0 0-1.165.001l-.375.421a4.422 4.422 0 0 0-.886-1.704c.818-.727 1.822-1.123 2.88-1.123Zm-4.647-4.623c1.488 0 2.699 1.36 2.699 3.031l-.002.092a6.162 6.162 0 0 0-2.352 1.563 3.51 3.51 0 0 0-.332-.124c-.241-1.458-1.118-2.627-2.278-3.173.481-.835 1.316-1.39 2.265-1.39Zm-4.355-5.141c.56 0 1.11.101 1.64.302a6.422 6.422 0 0 1-.204 4.262 4.924 4.924 0 0 0-1.056 1.639c-.147.01-.294.028-.44.056a3.673 3.673 0 0 0-1.751.895 4.912 4.912 0 0 0-.623-.97l1.89-2.12c.32-.361.32-.946-.002-1.305a.763.763 0 0 0-1.166.001l-2.065 2.318a3.97 3.97 0 0 0-1.264-.42 6.015 6.015 0 0 1 1.408-2.968c.971-1.09 2.261-1.69 3.633-1.69Zm-6.314 14.27h-.714c-.12-.344-.418-.587-.767-.587-.349 0-.646.243-.766.586h-.84a1.007 1.007 0 0 0-.12-1.135.763.763 0 0 0-1.166.001l-.776.872a.93.93 0 0 0-.163.262h-1.677a7.921 7.921 0 0 1-1.057-3.724h13.072a7.921 7.921 0 0 1-1.056 3.724h-1.746a.926.926 0 0 0-.162-.262l-.777-.872a.763.763 0 0 0-1.165-.001c-.276.308-.315.78-.12 1.135Zm-1.916-5.57c.31-1.29 1.36-2.241 2.605-2.241 1.244 0 2.294.951 2.605 2.24h-5.21ZM31.97 14.3a7.615 7.615 0 0 1 1.556 3.259 7.676 7.676 0 0 0-1.046 1.68.755.755 0 0 0-.43-.137h-1.097c-.455 0-.824.413-.824.923s.369.923.824.923h.963a8.518 8.518 0 0 0-.127.773c-.327.096-.64.233-.932.407-.55-1.061-1.459-1.852-2.536-2.17l-.001-.007a5.087 5.087 0 0 0-.331-1.182l3.98-4.47Zm-14.895 8.327a3.043 3.043 0 0 1-.11-.462c-.236-1.526.683-2.984 2.048-3.25.144-.028.29-.043.434-.043a2.32 2.32 0 0 1 1.5.561c.182.152.411.213.634.17a.824.824 0 0 0 .546-.4c.387-.653.979-1.086 1.666-1.22.145-.029.291-.043.436-.043 1.22 0 2.258.978 2.467 2.326.024.155.036.316.036.479.001.477.327.876.752.917.922.091 1.706.74 2.07 1.655a5.15 5.15 0 0 0-.953 2.33h-4.699c-.584 0-1.086.404-1.295.976a5.783 5.783 0 0 0-3.529-1.214c-.8 0-1.583.169-2.33.502a.994.994 0 0 0-.336.248c-.097.11-.172.238-.222.378a7.758 7.758 0 0 0-.384 1.64 2.944 2.944 0 0 1-.585-1.37c-.194-1.251.392-2.498 1.423-3.031.388-.2.575-.699.43-1.149Zm2.456 8.338.225.252h-1.98a5.815 5.815 0 0 1-.15-3.7 4.17 4.17 0 0 1 1.452-.262c1.242 0 2.41.543 3.289 1.53.117.131.226.269.328.411.14.708.354 1.384.63 2.021h-1.241l-1.386-1.556a.763.763 0 0 0-1.166-.001c-.322.36-.323.944-.001 1.305Zm-3.509.252h-2.937c.13-.894.61-1.656 1.277-2.105a4.29 4.29 0 0 0 1.503 1.395c.042.24.093.477.157.71ZM7.707 1.846h6.152v3.819H7.707v-3.82ZM12.72 7.51v1.93H8.846v-1.93h3.874ZM5.032 17.54h5.35c.455 0 .824-.414.824-.924s-.369-.922-.824-.922h-5.35v-1.897c0-1.385 1.002-2.51 2.234-2.51H14.3c1.232 0 2.235 1.125 2.235 2.51v1.897h-1.539c-.455 0-.824.413-.824.922 0 .51.37.923.824.923h1.539v.82c-.944 1.036-1.434 2.556-1.192 4.12l.001.01c-1.322 1.015-2.026 2.821-1.746 4.634.017.106.037.21.06.313a4.487 4.487 0 0 0-1.098.966H5.032V17.54Zm0 12.708h6.57c-.087.311-.149.635-.179.97h-.138c-.759 0-1.376.69-1.376 1.541 0 1.465.122 2.904.357 4.311a8.115 8.115 0 0 0-.726-.032c-.997 0-1.946.177-2.673.498-1.113.492-1.42 1.19-1.487 1.674a8.838 8.838 0 0 0-.349.206V30.25Zm10.433 11.337c.297.266.478.492.584.655h-.031c-.467 0-1.305-.21-2.257-.801a5.957 5.957 0 0 1-.946-.719.758.758 0 0 0-1.065 0c-.264.25-.59.499-.945.719-.953.59-1.79.801-2.257.801h-.03a3.34 3.34 0 0 1 .582-.655.99.99 0 0 0 .278-.975c-.092-.358-.366-.619-.697-.662-.804-.106-1.312-.335-1.55-.502.298-.208 1.052-.563 2.41-.563 1.123 0 1.944.265 2.338.513.251.157.557.157.807 0 .394-.248 1.216-.513 2.34-.513 1.357 0 2.111.355 2.41.563-.239.167-.747.396-1.552.502-.33.043-.604.304-.696.662a.989.989 0 0 0 .277.975Zm-1.648 11.232.028.171c.098.593.305 1.137.594 1.61H9.537c-3.956 0-7.175-3.28-7.175-7.314A7.341 7.341 0 0 1 6.08 40.88c.255.213.572.396.948.544-.15.285-.253.592-.278.912-.032.425.084.83.328 1.138.322.407.817.614 1.47.614.87 0 2.013-.386 3.055-1.033.24-.148.467-.305.68-.47.212.164.44.322.68.47 1.042.647 2.184 1.033 3.055 1.033.653 0 1.148-.207 1.47-.614.244-.308.36-.712.327-1.138a2.368 2.368 0 0 0-.277-.912c.376-.148.693-.332.947-.544a7.325 7.325 0 0 1 3.532 4.748l-5.828 2.48c-1.706.725-2.703 2.707-2.372 4.711Zm30.339.913c-.406.544-1.004.857-1.64.857h-.865l-.54-3.267c-.083-.501-.513-.832-.96-.74-.448.094-.744.575-.661 1.076l.485 2.932-2.835.002-.365-2.21c-.083-.501-.513-.832-.96-.74-.448.093-.744.575-.661 1.076l.31 1.874-6.595.003-.496-3c-.083-.502-.513-.833-.96-.74-.448.093-.743.574-.66 1.075l.44 2.666-9.628.004h-.001c-1.03 0-1.912-.818-2.099-1.946l-.028-.171c-.186-1.127.376-2.241 1.337-2.65l3.238-1.378.242 1.458c.073.445.42.755.809.755.05 0 .1-.005.151-.015.447-.093.743-.575.66-1.076l-.296-1.788 4.807-2.045c.425-.181.64-.715.478-1.191-.162-.477-.638-.716-1.063-.535l-2.237.952c-.627-2.489-2.24-4.567-4.377-5.758-.067-.483-.375-1.182-1.487-1.674-.728-.322-1.677-.499-2.673-.499-.686 0-1.341.085-1.92.24v-.558c0-.51-.368-.923-.823-.923a.766.766 0 0 0-.51.199c-.13-.963-.202-1.94-.214-2.932h26.838c.455 0 .824-.413.824-.923s-.369-.923-.824-.923h-.337a10.05 10.05 0 0 0 .821-4.001c0-.815-.556-1.485-1.265-1.561a2.095 2.095 0 0 1 1.123-.63c.126-.024.254-.037.38-.037 1.064 0 1.968.852 2.15 2.027.02.136.03.276.031.417 0 .478.327.876.752.918.985.097 1.79.926 1.96 2.017.044.29.038.576-.007.85h-.884c-.455 0-.824.413-.824.923s.37.923.824.923h6.404a23.684 23.684 0 0 1-.578 4.95l-4.465 2.953c-.273-1.065-.908-1.968-1.783-2.516a3.425 3.425 0 0 0-3.198-.264L30.304 42.1c-.425.181-.639.715-.477 1.19.161.477.638.717 1.063.536l1.211-.516.376 2.275c.074.445.42.755.81.755.05 0 .1-.005.15-.015.448-.093.744-.575.66-1.076l-.43-2.605 6.42-2.731a1.936 1.936 0 0 1 1.807.149c.554.347.937.945 1.052 1.64l1.667 10.08a2.569 2.569 0 0 1-.457 1.949Zm2.94-7.224c-.384.08-.666.45-.675.888-.008.437.259.821.64.92l6.134 1.575-.153 1.152-7.112-1.432-1.111-6.722 6.194-4.096.516 1.024-5.225 3.911c-.325.244-.452.71-.305 1.115.146.405.528.64.912.56l8.207-1.688.183 1.105-8.205 1.688Z" fill="#071F41"/></svg>