<svg width="57" height="56" fill="none" xmlns="http://www.w3.org/2000/svg"><g clip-path="url(#a)"><path d="M53.226 27.517 51 25.267V3.869l1.87-1.89a.955.955 0 0 0 0-1.34.932.932 0 0 0-1.327 0l-1.87 1.889H28.49L26.265.277a.932.932 0 0 0-1.328 0 .956.956 0 0 0 0 1.342l2.131 2.153-6.609 28.294a2.714 2.714 0 0 0-.472 2.462 2.677 2.677 0 0 0 2.026 1.866l4.214.864a2.729 2.729 0 0 1 1.864 1.4c.386.726.431 1.58.125 2.343a2.724 2.724 0 0 1-3.099 1.664l-15.79-3.38c-2.377-.509-4.774.855-5.576 3.172a4.935 4.935 0 0 0 .372 4.056 4.844 4.844 0 0 0 3.282 2.367l.066.013a4.175 4.175 0 0 1 2.899 2.157 4.253 4.253 0 0 1 .17 3.634.952.952 0 0 0 .502 1.242.939.939 0 0 0 1.229-.508 6.16 6.16 0 0 0-.246-5.263 6.047 6.047 0 0 0-4.198-3.125l-.066-.013a2.966 2.966 0 0 1-2.01-1.45 3.022 3.022 0 0 1-.228-2.483 2.97 2.97 0 0 1 3.415-1.943l15.79 3.38a4.596 4.596 0 0 0 5.228-2.807 4.687 4.687 0 0 0-.21-3.953 4.602 4.602 0 0 0-3.146-2.362l-4.214-.864a.78.78 0 0 1-.601-.554.801.801 0 0 1 .063-.619l27.919-6.656 2.131 2.153a.932.932 0 0 0 1.328 0 .956.956 0 0 0 0-1.342ZM47.794 4.424l-8.712 8.802-8.713-8.802h17.425Zm-19.165.925 9.125 9.219-14.762 14.914L28.63 5.349ZM24.32 30.823 39.082 15.91l9.124 9.218-23.886 5.695Zm24.802-7.453-8.713-8.802 8.713-8.802V23.37Z" fill="#071F41"/></g><defs><clipPath id="a"><path fill="#fff" transform="translate(.776)" d="M0 0h55.429v56H0z"/></clipPath></defs></svg>